<svg version="1.0" xmlns="http://www.w3.org/2000/svg"
 width="360.000000pt" height="360.000000pt" viewBox="0 0 360.000000 360.000000"
 preserveAspectRatio="xMidYMid meet">

<g transform="translate(0.000000,360.000000) scale(0.100000,-0.100000)"
fill="#000000" stroke="none">
<path d="M1392 2684 c-89 -24 -176 -80 -221 -142 l-19 -28 51 2 c40 1 64 9
102 33 96 61 99 61 650 61 l501 0 44 45 44 45 -549 -1 c-442 0 -560 -3 -603
-15z"/>
<path d="M1250 2100 c-25 -7 -24 -8 26 -57 82 -80 128 -93 337 -93 l173 0 44
45 44 45 -216 0 -216 0 -56 29 c-62 33 -98 41 -136 31z"/>
<path d="M1770 1605 l-44 -45 215 0 216 0 59 -29 c58 -29 154 -45 154 -27 0
23 -101 105 -154 125 -50 18 -78 21 -229 21 l-173 0 -44 -45z"/>
<path d="M2297 1054 c-91 -63 -97 -64 -652 -64 l-501 0 -44 -45 -45 -46 570 3
570 3 58 23 c64 26 144 85 177 131 l21 31 -53 -1 c-43 -1 -62 -7 -101 -35z"/>
</g>
</svg>